<svg width="20" height="20" viewBox="0 0 20 20" fill="none" xmlns="http://www.w3.org/2000/svg">
<path fill-rule="evenodd" clip-rule="evenodd" d="M9.75763 4C11.4704 4 12.8639 5.39347 12.8639 7.10627C12.8639 8.8188 11.4704 10.2123 9.75763 10.2123C8.04483 10.2123 6.65137 8.8188 6.65137 7.10627C6.65137 5.39347 8.04483 4 9.75763 4ZM9.75766 4.42447C8.27899 4.42447 7.07619 5.62753 7.07619 7.1062C7.07619 8.5846 8.27899 9.78767 9.75766 9.78767C11.2363 9.78767 12.4391 8.5846 12.4391 7.1062C12.4391 5.62753 11.2365 4.42447 9.75766 4.42447Z" fill="#1F1F1F"/>
<path d="M12.9639 7.10627C12.9639 5.33824 11.5257 3.9 9.75763 3.9V4.1C11.4152 4.1 12.7639 5.4487 12.7639 7.10627H12.9639ZM9.75763 10.3123C11.5257 10.3123 12.9639 8.87403 12.9639 7.10627H12.7639C12.7639 8.76357 11.4152 10.1123 9.75763 10.1123V10.3123ZM6.55137 7.10627C6.55137 8.87403 7.98961 10.3123 9.75763 10.3123V10.1123C8.10006 10.1123 6.75137 8.76357 6.75137 7.10627H6.55137ZM9.75763 3.9C7.98961 3.9 6.55137 5.33824 6.55137 7.10627H6.75137C6.75137 5.4487 8.10006 4.1 9.75763 4.1V3.9ZM7.17619 7.1062C7.17619 5.68275 8.33423 4.52447 9.75766 4.52447V4.32447C8.22375 4.32447 6.97619 5.57232 6.97619 7.1062H7.17619ZM9.75766 9.68767C8.33423 9.68767 7.17619 8.52938 7.17619 7.1062H6.97619C6.97619 8.63982 8.22376 9.88767 9.75766 9.88767V9.68767ZM12.3391 7.1062C12.3391 8.52938 11.1811 9.68767 9.75766 9.68767V9.88767C11.2916 9.88767 12.5391 8.63982 12.5391 7.1062H12.3391ZM9.75766 4.52447C11.1812 4.52447 12.3391 5.68275 12.3391 7.1062H12.5391C12.5391 5.57232 11.2917 4.32447 9.75766 4.32447V4.52447Z" fill="#1F1F1F"/>
<path fill-rule="evenodd" clip-rule="evenodd" d="M5.3844 16.0001C4.70413 16.0001 4 15.4898 4 14.6365C4 13.735 5.0344 11.3954 9.75747 11.3954C14.4805 11.3954 15.5149 13.7349 15.5149 14.6365C15.5149 15.4898 14.8109 16.0001 14.1305 16.0001H5.3844ZM15.0902 14.6364C15.0902 13.9057 14.1104 11.82 9.75738 11.82C5.40431 11.82 4.42458 13.9057 4.42458 14.6364C4.42458 15.2462 4.91911 15.5754 5.38431 15.5754H14.1304C14.5956 15.5754 15.0902 15.2462 15.0902 14.6364Z" fill="#1F1F1F"/>
<path d="M3.9 14.6365C3.9 15.5549 4.65938 16.1001 5.3844 16.1001V15.9001C4.74889 15.9001 4.1 15.4246 4.1 14.6365H3.9ZM9.75747 11.2954C4.99844 11.2954 3.9 13.6623 3.9 14.6365H4.1C4.1 13.8077 5.07036 11.4954 9.75747 11.4954V11.2954ZM15.6149 14.6365C15.6149 13.6621 14.5165 11.2954 9.75747 11.2954V11.4954C14.4446 11.4954 15.4149 13.8076 15.4149 14.6365H15.6149ZM14.1305 16.1001C14.8557 16.1001 15.6149 15.5549 15.6149 14.6365H15.4149C15.4149 15.4246 14.7662 15.9001 14.1305 15.9001V16.1001ZM5.3844 16.1001H14.1305V15.9001H5.3844V16.1001ZM9.75738 11.92C14.0802 11.92 14.9902 13.983 14.9902 14.6364H15.1902C15.1902 13.8284 14.1407 11.72 9.75738 11.72V11.92ZM4.52458 14.6364C4.52458 13.983 5.43454 11.92 9.75738 11.92V11.72C5.37409 11.72 4.32458 13.8284 4.32458 14.6364H4.52458ZM5.38431 15.4754C4.96105 15.4754 4.52458 15.1786 4.52458 14.6364H4.32458C4.32458 15.3139 4.87718 15.6754 5.38431 15.6754V15.4754ZM14.1304 15.4754H5.38431V15.6754H14.1304V15.4754ZM14.9902 14.6364C14.9902 15.1786 14.5537 15.4754 14.1304 15.4754V15.6754C14.6376 15.6754 15.1902 15.3139 15.1902 14.6364H14.9902Z" fill="#1F1F1F"/>
<circle cx="10" cy="10" r="9.65" stroke="black" stroke-width="0.7"/>
</svg>
