<svg width="20" height="20" viewBox="0 0 20 20" fill="none" xmlns="http://www.w3.org/2000/svg">
<path fill-rule="evenodd" clip-rule="evenodd" d="M10 20C15.514 20 20 15.5138 20 10C20 4.48622 15.514 0 10 0C4.486 0 0 4.48622 0 10C0 15.5138 4.48622 20 10 20ZM12.5678 18.9287C13.5498 18.06 14.3695 16.7098 14.9258 15.0553C15.7878 15.2076 16.6087 15.4016 17.3831 15.6338C16.1873 17.1976 14.5064 18.3702 12.5678 18.9287ZM15.1362 14.3736C16.0769 14.5429 16.9713 14.7611 17.8109 15.024C18.6867 13.6671 19.2187 12.0698 19.2833 10.3536H15.7076C15.6787 11.7907 15.4771 13.1516 15.1362 14.3736ZM19.2833 9.64622H15.7078C15.6789 8.20911 15.4773 6.848 15.1362 5.626C16.0771 5.45688 16.9716 5.23844 17.8111 4.97533C18.6867 6.33244 19.2187 7.93022 19.2833 9.64622ZM14.9258 4.94399C15.7878 4.79222 16.6089 4.59822 17.3831 4.36599C16.1871 2.80199 14.5062 1.62955 12.5673 1.07088C13.5496 1.93955 14.3696 3.28977 14.9258 4.94399ZM10.3538 0.733114C11.988 0.946225 13.4078 2.62134 14.2358 5.05778C13.0013 5.23978 11.6967 5.33778 10.3538 5.35289V0.733114ZM14.4462 5.74C13.1453 5.93711 11.7702 6.04489 10.3538 6.06023V9.64623H15.0005C14.972 8.24245 14.7749 6.91845 14.4462 5.74ZM10.3538 10.3538H15.0005C14.972 11.7571 14.7749 13.0813 14.4462 14.26C13.1453 14.0622 11.7702 13.9553 10.3538 13.9393V10.3538ZM14.2356 14.942C13.0013 14.7598 11.6967 14.6618 10.3538 14.6469V19.2664C11.9882 19.0533 13.4078 17.3787 14.2356 14.942ZM9.64621 19.2664C8.01199 19.0533 6.59221 17.3787 5.76421 14.942C6.99866 14.7598 8.30333 14.6618 9.64621 14.6469V19.2664ZM5.55379 14.26C6.85468 14.0624 8.22979 13.9553 9.64624 13.9393V10.3538H4.99935C5.02802 11.7571 5.22513 13.0813 5.55379 14.26ZM9.64624 9.64623H4.99935C5.02802 8.24245 5.22513 6.91845 5.55379 5.74C6.85468 5.93711 8.23002 6.04489 9.64624 6.06023V9.64623ZM9.64621 5.35311V0.733114C8.01199 0.946225 6.59199 2.62134 5.76421 5.058C6.99866 5.24 8.30333 5.338 9.64621 5.35311ZM7.43264 1.07088C6.45042 1.93955 5.63064 3.28977 5.07442 4.94399C4.2122 4.79244 3.39131 4.59822 2.61664 4.36599C3.81287 2.80199 5.49376 1.62955 7.43264 1.07088ZM4.86403 5.62622C3.92314 5.45711 3.02869 5.23866 2.18914 4.97578C1.31314 6.33244 0.781138 7.93022 0.716471 9.64644H4.29269C4.32136 8.20933 4.52292 6.84822 4.86403 5.62622ZM0.716471 10.3538H4.29269C4.32136 11.7909 4.52292 13.1518 4.86403 14.3736C3.92314 14.5427 3.02847 14.7613 2.18892 15.0242C1.31314 13.6671 0.781138 12.0696 0.716471 10.3538ZM7.43242 18.9287C6.4502 18.06 5.63042 16.7096 5.07442 15.0553C4.2122 15.2076 3.39131 15.4016 2.61664 15.6338C3.81264 17.1976 5.49331 18.3702 7.43242 18.9287Z" fill="#1F1F1F"/>
</svg>
