<svg width="20" height="19" viewBox="0 0 20 19" fill="none" xmlns="http://www.w3.org/2000/svg">
<circle cx="9.2632" cy="16.5426" r="1.48" fill="#1F1F1F"/>
<circle cx="15.347" cy="16.5426" r="1.47977" fill="#1F1F1F"/>
<path fill-rule="evenodd" clip-rule="evenodd" d="M5.06621 3.80266H18.8246C19.222 3.80266 19.5722 3.96599 19.7851 4.25066C19.9982 4.53532 20.0562 4.91732 19.944 5.29843L17.8406 12.4493C17.6269 13.176 16.8657 13.7455 16.1082 13.7455H8.50265C7.74354 13.7455 6.98665 13.1731 6.77976 12.4429L4.45866 4.25288L3.91977 2.35222C3.66733 1.46155 2.80533 0.708665 2.03733 0.708221L0.353777 0.707332C0.158222 0.707332 0 0.548888 0 0.353333C0.000222222 0.158222 0.158444 0 0.353777 0L2.03777 0.000444444C3.11355 0.000888887 4.2631 0.969331 4.60043 2.15911L5.06621 3.80266ZM17.162 12.2495L19.2651 5.09888C19.3146 4.93133 19.2979 4.78044 19.2186 4.67466C19.1393 4.56866 18.9995 4.51022 18.8246 4.51022H5.26664L7.46042 12.25C7.57931 12.6695 8.06664 13.0382 8.50286 13.0382H16.1082C16.546 13.0382 17.0384 12.6695 17.162 12.2495Z" fill="#1F1F1F"/>
<line x1="9.35" y1="10.65" x2="15.65" y2="10.65" stroke="#1F1F1F" stroke-width="0.7" stroke-linecap="round"/>
<line x1="8.35" y1="7.65" x2="16.65" y2="7.65" stroke="#1F1F1F" stroke-width="0.7" stroke-linecap="round"/>
</svg>
